<svg class="b-logo" xmlns="http://www.w3.org/2000/svg" xmlns:xlink="http://www.w3.org/1999/xlink" viewBox="185 310 210 210" xml:space="preserve"><linearGradient id="a" gradientUnits="userSpaceOnUse" x1="291.06" y1="307.141" x2="291.06" y2="462.6"><stop offset=".248" style="stop-color:#fff79d"/><stop offset=".914" style="stop-color:#b4aa46;stop-opacity:.98"/></linearGradient><path id="halo" d="M291.06 327.75c-42.93 0-77.73 17.09-77.73 38.18s34.8 38.18 77.73 38.18c42.93 0 77.73-17.09 77.73-38.18s-34.8-38.18-77.73-38.18zm0 65.04c-32.57 0-58.96-10.33-58.96-23.07s26.39-23.07 58.96-23.07 58.96 10.33 58.96 23.07-26.39 23.07-58.96 23.07z" style="fill:url(#a); filter: drop-shadow(0px 0px 10px #ff8)"/><g><path id="letter-b" d="m231.8 504.58.88-9.52c2.76-1.8 5.65-3.36 8.68-4.66 3.02-1.29 5.89-2.1 8.62-2.43l7.5-113.01c-2.21-.43-4.51-1.06-6.9-1.88-2.39-.81-4.53-1.76-6.43-2.84l.56-6.09 26.48-.06c4.17-.01 8.12-.18 11.86-.5 3.73-.32 8-.49 12.83-.5 5.26-.01 10.37.35 15.33 1.07 4.98.73 9.45 2.05 13.42 3.97 4 1.93 7.32 4.67 9.94 8.24 2.66 3.62 4.24 8.34 4.73 14.23.31 3.76-.06 7.3-1.14 10.61-1.09 3.36-2.77 6.35-5.02 8.96-2.28 2.64-5.03 4.86-8.24 6.65-3.24 1.8-6.79 3.1-10.65 3.88l.03.78c3.92.52 7.9 1.49 11.96 2.92 4.07 1.45 7.81 3.56 11.23 6.36 3.45 2.83 6.4 6.4 8.85 10.75 2.49 4.41 4.03 9.72 4.61 15.96.75 8.02-.18 15.09-2.85 21.15-2.72 6.17-6.69 11.33-11.94 15.41-5.31 4.14-11.55 7.19-18.68 9.12-7.17 1.94-14.68 2.93-22.48 2.93-2.93 0-6.13-.09-9.61-.25l-10.43-.51c-3.47-.17-6.84-.34-10.1-.51-3.26-.17-6-.25-8.22-.25l-24.82.02zm54.74-85.95c2.06 0 4.12-.1 6.18-.3 2.06-.2 3.99-.42 5.81-.68 4.68-2.05 8.4-5.19 11.16-9.39 2.72-4.13 3.97-8.78 3.78-13.91-.27-7.35-2.33-12.61-6.17-15.92-3.79-3.26-8.57-4.87-14.38-4.86-2.46.01-4.58.07-6.37.18-1.79.11-3.42.28-4.87.5l-.95 44.38h5.81zm8.17 71.27c8.57 0 15.23-3.03 19.9-9 4.59-5.86 6.65-13.48 6.23-22.72-.25-5.53-1.21-10-2.88-13.47-1.65-3.42-3.82-6.12-6.52-8.11-2.68-1.97-5.82-3.32-9.43-4.06-3.61-.74-7.51-1.1-11.72-1.1l-9.84.01-1.21 56.76c1.89.48 3.88.89 5.99 1.21 2.1.33 5.26.49 9.48.48z" style="fill:#fff; filter: drop-shadow(0 5px 5px rgba(0, 0, 0, 0.4))"/></g></svg>
