<svg xmlns="http://www.w3.org/2000/svg" width="318" height="63"><style>.shp0{fill:none;stroke:#fff;stroke-width:8}</style><g id="axiom"><path id="a" class="shp0" d="M4.5 61C42-14.95 31-13.45 68 61"/><g id="x"><path id="xa" class="shp0" d="M86 62c0-40 60-40 60 0M86 62c0-40 60-40 60 0M86 62c0-40 60-40 60 0"/><path id="xb" class="shp0" d="M146 2c0 40-60 40-60 0"/></g><path id="i" class="shp0" d="M167 62V2"/><path id="o" class="shp0" d="M210 58c-13.82 0-25-11.62-25-26s11.18-26 25-26 25 11.62 25 26-11.18 26-25 26z"/><path id="Layer 2" class="shp0" d="M254 62V22c0-20 9.57-22.07 20-5 5.5 9 16 6.05 20 0 11.02-16.69 20-15 20 5v40"/></g></svg>
